PathFileType	4	(X/Y/Z)	22_1_50_p1_0-205.trc
DataRate	CameraRate	NumFrames	NumMarkers	Units	OrigDataRate	OrigDataStartFrame	OrigNumFrames
58.0	58.0	5	27	m	58.0	25	206
Frame#	Time	RHip			RKnee			RAnkle			RBigToe			RSmallToe			RHeel			LHip			LKnee			LAnkle			LBigToe			LSmallToe			LHeel			Neck			Head			Nose			RShoulder			RElbow			RWrist			RThumb			RIndex			RPinky			LShoulder			LElbow			LWrist			LThumb			LIndex			LPinky			
		X1	Y1	Z1	X2	Y2	Z2	X3	Y3	Z3	X4	Y4	Z4	X5	Y5	Z5	X6	Y6	Z6	X7	Y7	Z7	X8	Y8	Z8	X9	Y9	Z9	X10	Y10	Z10	X11	Y11	Z11	X12	Y12	Z12	X13	Y13	Z13	X14	Y14	Z14	X15	Y15	Z15	X16	Y16	Z16	X17	Y17	Z17	X18	Y18	Z18	X19	Y19	Z19	X20	Y20	Z20	X21	Y21	Z21	X22	Y22	Z22	X23	Y23	Z23	X24	Y24	Z24	X25	Y25	Z25	X26	Y26	Z26	X27	Y27	Z27	
25	0.43103448275862066	0.2639796734081697	0.5976201006162716	1.0273198787258706	0.2769895195995048	0.7678227891824434	1.423869571593593	0.2976374480222823	0.9231967905063732	1.8324174427137458	0.24298733851990434	0.6954082580325375	1.8736476962048394	0.304449068069647	0.7342120786270139	1.8778712905900574	0.28881541932555543	0.9911698271638165	1.882092742883973	0.04547505348019234	0.6757804620802081	1.04449101334217	0.07303347965781591	0.7923234566176165	1.417275798093876	0.09327916173145664	0.9008472960607377	1.8229842445401334	0.09743934378099836	0.743749905165135	1.8815641026956877	0.05002769850819202	0.7878341636877779	1.8849393826090228	0.12709126501246726	0.9624972151284286	1.867529620912973	0.10921947221493823	0.4333456915655021	0.491616322346399	0.09470118872527504	0.3225422735814986	0.2584947598096701	0.07893310404285797	0.30221697117596924	0.4104604101272686	0.2646800697235963	0.4489628747980085	0.5699437151833413	0.31611791529236744	0.4055840007782662	0.8220816299391857	0.205860689378181	0.42586246756840773	1.048680022717521	0.10683147511677235	0.4424763246736433	1.138718922600907	0.11266925760622595	0.4560781874120105	1.1480814467790705	0.137089295198782	0.46946444872349363	1.1567260836513085	-0.038847036231300966	0.4742490413743043	0.5639687542586252	-0.049877918238486904	0.534617128412107	0.8284468730620003	0.04946157496929474	0.4613408801594008	1.0254855117299984	0.1113649964897786	0.45028255102553094	1.1128517497307238	0.1180621352972137	0.46577889026516966	1.1447835463733667	0.11536408126403339	0.4826300971396177	1.143635950689344
26	0.4482758620689655	0.2696225119073414	0.6108892560216246	1.0282919941662534	0.27705218105621154	0.7680071255979078	1.4242146006131706	0.2976135156414325	0.9230175113042165	1.8324176268971657	0.23740890608266468	0.6811391935451658	1.8687039372390337	0.30428576700817933	0.7336546220753212	1.8777428517120962	0.288868187557414	0.9912146303930991	1.8821637470500323	0.04549407289087986	0.6760969108771473	1.044555686442332	0.0773304606054761	0.7936820977209206	1.417530249165008	0.09328272753008689	0.9010969534804826	1.8232175244069144	0.0995368774773124	0.7281165797730884	1.8759015602395983	0.049849598052749494	0.7879205697818829	1.885053548144077	0.1269502539793276	0.9622767394885233	1.8675229323860174	0.10917480350578351	0.43331742905759246	0.4916295100673436	0.0946086356437623	0.32263264664475105	0.2585032646302744	0.07891958387277294	0.30231834340650243	0.4104700508492803	0.2646835769233228	0.44908525086367695	0.5699843718122023	0.3160290229362829	0.4055519278982073	0.8219663078282601	0.21069452527104862	0.4367255763249648	1.0496609968869501	0.10706177986707524	0.44242086884106974	1.1388058424524117	0.11775340204121997	0.46726829241655715	1.1529553213989205	0.13920792417794653	0.4571251155150337	1.1584364959815352	-0.038855131771837366	0.47425136357167763	0.5640014818935974	-0.04986358399806	0.5346383602754415	0.8285091053131827	0.04934025377824176	0.4617685438752881	1.0255492483977382	0.10598575448440999	0.4384550974843695	1.1119185709586052	0.11790976449399937	0.46555998203512183	1.1448478880637072	0.11527711666844008	0.4824109688692108	1.1435901097342815
27	0.46551724137931033	0.2696199386129744	0.610856772591247	1.0282706503820331	0.2769814134190399	0.7679180744810734	1.4240376832553776	0.2976111511991798	0.9231878657192644	1.832436251005155	0.23832253566822267	0.6836681359544599	1.8693281120083538	0.30491645366052655	0.7353204012733651	1.878032590138815	0.28941007545762776	0.9921542672520683	1.8827142974791735	0.04550001924265161	0.67604647747658	1.0443862118906926	0.07718600064373	0.7932628858310421	1.417485387890349	0.0945237391820637	0.9051097085411542	1.8251115112687968	0.09958682531061828	0.7280122128651508	1.8756902630850727	0.05006487858066954	0.7874753961604428	1.884788947060987	0.12698663615547437	0.9625434059223917	1.8676931164045256	0.10915885553114864	0.43339057347612125	0.49168653893655356	0.09451752632806514	0.32242273105212044	0.25852936643879265	0.078937184971369	0.30230192910791415	0.41046858513423473	0.2647402222094321	0.44950070512302265	0.5733782494160619	0.31603570174747964	0.4052618825377221	0.8220967453671226	0.20586142892184067	0.42585254665552047	1.0486124273489832	0.10245989381310218	0.43042138587704565	1.1373691250244142	0.11305159435153389	0.4555728564520146	1.1515144231033048	0.13978874960073673	0.4685762881522719	1.1562379361058515	-0.03895559099450668	0.4745232742445952	0.5639964949726621	-0.049856971951837394	0.5346134341849141	0.8283441986538077	0.04956829837177125	0.46197653910243186	1.0287807990051074	0.10661009085221157	0.43870455120994073	1.1145134719261638	0.11334759180447085	0.45472394057989235	1.1435639100246886	0.11545203044103058	0.48268792214921163	1.1435639450433446
28	0.4827586206896552	0.26981348086971924	0.6095485595236065	1.024429745458076	0.2771703063890408	0.7680982979306882	1.4246446934308847	0.29759389404540953	0.9231624440439443	1.832466136092927	0.23803395178124628	0.6819405306441542	1.868763577939294	0.30459849662645766	0.733925295771086	1.8777750553416588	0.28992220686840114	0.9899698030576396	1.8774569392916431	0.04562255712451856	0.6759239739339771	1.0440427873955438	0.07413405154091317	0.7948770383915539	1.4223350135328234	0.09482080589053517	0.9045464686954502	1.8291027366280463	0.09958527522907208	0.7281604248431073	1.8757196992730096	0.05003416963332429	0.7879241347311539	1.885014585936265	0.12695594829987975	0.9627432732170523	1.8678169917177956	0.10915672835351327	0.4333332828150941	0.49168654254200617	0.09449609711622615	0.3224897216046611	0.2585287710300494	0.07893356364621963	0.3023393812856857	0.41047310668199244	0.26470889377831547	0.4487193878307743	0.5699180736334643	0.3160239902989681	0.40550076720793526	0.8218831463367973	0.2108238027067176	0.4368269152061454	1.0493566917184802	0.10219367267653252	0.43105248655463013	1.1411362243280299	0.10848191684039883	0.44387642291148355	1.1503407836676096	0.14080197681674936	0.4703492562662402	1.16048906392246	-0.038377925443006784	0.47607315043817966	0.5676778223096209	-0.049579098552874845	0.5337210405315469	0.8246814249741266	0.04536557140808325	0.4628036885755474	1.0323060273918157	0.10660127489160977	0.43883096660502313	1.1221671169151182	0.11339471443021326	0.45452121480649305	1.1437271500117367	0.11479054459438144	0.4809044710965142	1.1437441166703886
29	0.5	0.26983519869053557	0.6097421177583012	1.024471218522175	0.27715906424522496	0.7680070585089174	1.4245591004356355	0.297601398635458	0.9230399790566722	1.8323757502791254	0.24344115379273776	0.6955405892812014	1.8735455781432082	0.3046773963105984	0.7339825186159535	1.8777798563758532	0.28987438854893327	0.9898043585511125	1.8773367431266363	0.04561486974491414	0.6761668082716352	1.044173996275733	0.07816601577077247	0.7957117406181645	1.422651969624087	0.09478646474191575	0.9043824776591379	1.8289978510740832	0.09957613601150742	0.7281684661754578	1.875820836887359	0.04984815231318169	0.7876779557777845	1.8849518691835698	0.12683131159015212	0.9623689381632488	1.8676779015376175	0.10920163436137248	0.43323780152422986	0.4916300355412481	0.09455626393648153	0.3222149014524869	0.2585389423844493	0.07894795893936493	0.3023425575589929	0.41048050821431264	0.2647420011286906	0.44874467749551916	0.5699554451840965	0.3162768773142509	0.4055763204526401	0.8220432164100533	0.21082869872726592	0.43686795083236224	1.0494248724774964	0.09748414195107817	0.4191189468269164	1.1396370695702338	0.1082879015790775	0.4436476297046049	1.1503986763460867	0.13661426869632376	0.4703326744030087	1.160695345826755	-0.03838059733307817	0.47588842698111544	0.5676578754073653	-0.04958354039923612	0.5336620710327592	0.824692808773814	0.04537248475947707	0.46307050205846306	1.0322017901007439	0.10701561960720274	0.43959437519717565	1.1221527133299478	0.11352733744443298	0.4549004253924226	1.1438274214087598	0.1148710185424489	0.48096152044632406	1.14393984042371
